<?xml version="1.0" encoding="utf-8"?>
<!-- Generator: Adobe Illustrator 23.0.1, SVG Export Plug-In . SVG Version: 6.00 Build 0)  -->
<svg version="1.1" id="Layer_1" xmlns="http://www.w3.org/2000/svg" xmlns:xlink="http://www.w3.org/1999/xlink" x="0px" y="0px"
	 viewBox="0 0 750 138.4" style="enable-background:new 0 0 750 138.4;" xml:space="preserve">
<style type="text/css">
	.st0{fill:#74012A;}
	.st1{fill:#FFFFFF;}
	.st2{fill:#F3DAA1;}
	.st3{fill:none;stroke:#4B2C1C;stroke-width:6;stroke-miterlimit:10;}
</style>
<g>
	<path class="st1" d="M727.9,49.3c-1.8,21.1-19.7,37.2-40.5,37.2c-1.1,0-2.1,0-3.2-0.1h-0.3l-0.2-0.1
		C581.8,56,478.2,40.6,375.6,40.6h-1.3c-102.6,0-206.2,15.4-308,45.7l-0.2,0.1h-0.3c-1.1,0.1-2.1,0.1-3.2,0.1
		c-20.9,0-38.7-16.1-40.5-37.2c-0.8-8.8,2-17.4,7.7-24.1c5.7-6.8,13.7-10.9,22.5-11.6c7.2-0.6,14.1,1.6,19.6,6.2s8.9,11.1,9.5,18.3
		l-5,0.4c-0.5-5.8-3.2-11.1-7.7-14.9s-10.2-5.6-16-5.1c-7.5,0.6-14.2,4.1-19.1,9.9c-4.8,5.7-7.1,13-6.5,20.5
		c1.7,19.4,18.7,34,38.1,32.6C167.4,51,271.4,35.6,374.4,35.6h1.3c103,0,207,15.4,309.2,45.8c19.4,1.4,36.5-13.2,38.1-32.6
		c0.6-7.5-1.7-14.7-6.5-20.5c-4.8-5.7-11.6-9.2-19.1-9.9c-5.8-0.5-11.5,1.3-16,5.1s-7.2,9.1-7.7,14.9l-5-0.4
		c0.6-7.2,4-13.7,9.5-18.3s12.5-6.9,19.6-6.2c8.8,0.8,16.8,4.9,22.5,11.6C725.9,31.9,728.6,40.5,727.9,49.3z"/>
</g>
<polygon points="381.3,128 378.5,125.2 378.5,125.2 "/>
<polygon class="st1" points="416.5,92.9 384.2,125.2 381.3,128 381.3,128 378.5,125.2 378.5,125.2 346.2,92.9 349,90 381.3,122.3 
	413.7,90 "/>
</svg>
